# xmcd
#
# Track frame offsets: 
#        150
#        19008
#        48234
#        65569
#        85540
#        101674
#        127495
#        145502
#        161195
#        184079
#        210649
#        236980
#        257812
#        284484
#        302346
#
# Disc length: 4372 seconds
#
# Revision: 2
# Processed by: cddbd v1.5.2PL0 Copyright (c) Steve Scherf et al.
# Submitted via: ExactAudioCopyFreeDBPlugin 1.0
#
DISCID=d911120f
DTITLE=Philipp Fankhauser - Try my love
DYEAR=2011
DGENRE=Blues
TTITLE0=It's gonna rain
TTITLE1=Make my home where I hang my hat
TTITLE2=Jealous kinda fella
TTITLE3=Don't be afraid of the dark
TTITLE4=Try my love
TTITLE5=Please, come on home
TTITLE6=Cut me some slack
TTITLE7=This song
TTITLE8=Sweet deal
TTITLE9=Roadhouses and automobiles
TTITLE10=Then it rained
TTITLE11=Blues ain't nothin'
TTITLE12=Down on bending knees
TTITLE13=Flyin' high (Yesterday)
TTITLE14=Too little too late
EXTD=
EXTT0=
EXTT1=
EXTT2=
EXTT3=
EXTT4=
EXTT5=
EXTT6=
EXTT7=
EXTT8=
EXTT9=
EXTT10=
EXTT11=
EXTT12=
EXTT13=
EXTT14=
PLAYORDER=
